<svg width="28" height="30" viewBox="0 0 28 30" fill="none" xmlns="http://www.w3.org/2000/svg">
<g filter="url(#filter0_d_201_220)">
<g filter="url(#filter1_d_201_220)">
<path fill-rule="evenodd" clip-rule="evenodd" d="M18.8801 6.38192C18.6229 3.91976 16.531 2.00004 13.9885 2.00004C12.6836 1.99458 11.4273 2.50773 10.5004 3.42606C9.6959 4.2232 9.19715 5.26864 9.07952 6.38192H9.07864C7.29724 6.38192 5.80058 7.68308 5.38011 9.94232L4.61922 15.8123C3.97155 20.1105 5.99286 22 9.94875 22H18.046C21.7043 22 23.8909 19.8703 23.4419 16.0482L22.6564 9.98167C22.1528 7.69432 20.6947 6.38192 18.9516 6.38192H18.8801ZM17.4138 6.38192C17.1653 4.7215 15.7261 3.44777 13.9855 3.44777C13.0644 3.44391 12.1797 3.80526 11.5271 4.45192C10.9972 4.97695 10.6557 5.65494 10.5459 6.38192H17.4138ZM9.07864 7.82965H18.9516C19.9739 7.82965 20.8719 8.63792 21.2244 10.2299L21.968 15.9973C22.4105 19.0657 20.9375 20.5522 18.046 20.5522H9.94875C6.81775 20.5522 5.55418 19.3711 6.06021 16.0121L6.81697 10.1666C7.10614 8.61886 8.01393 7.82965 9.07864 7.82965ZM16.8652 10.5164C17.267 10.5164 17.5927 10.8405 17.5927 11.2403C17.5927 11.6067 17.319 11.9096 16.9639 11.9575L16.8652 11.9641H16.8208C16.419 11.9641 16.0933 11.64 16.0933 11.2403C16.0933 10.8738 16.367 10.5709 16.7221 10.523L16.8208 10.5164H16.8652ZM11.937 11.2403C11.937 10.8405 11.6113 10.5164 11.2095 10.5164H11.1651L11.0664 10.523C10.7113 10.5709 10.4376 10.8738 10.4376 11.2403C10.4376 11.64 10.7633 11.9641 11.1651 11.9641H11.2095L11.3082 11.9575C11.6633 11.9096 11.937 11.6067 11.937 11.2403Z" fill="#200E32"/>
</g>
</g>
<defs>
<filter id="filter0_d_201_220" x="0.5" y="2" width="27" height="28" filterUnits="userSpaceOnUse" color-interpolation-filters="sRGB">
<feFlood flood-opacity="0" result="BackgroundImageFix"/>
<feColorMatrix in="SourceAlpha" type="matrix" values="0 0 0 0 0 0 0 0 0 0 0 0 0 0 0 0 0 0 127 0" result="hardAlpha"/>
<feOffset dy="4"/>
<feGaussianBlur stdDeviation="2"/>
<feComposite in2="hardAlpha" operator="out"/>
<feColorMatrix type="matrix" values="0 0 0 0 0 0 0 0 0 0 0 0 0 0 0 0 0 0 0.25 0"/>
<feBlend mode="normal" in2="BackgroundImageFix" result="effect1_dropShadow_201_220"/>
<feBlend mode="normal" in="SourceGraphic" in2="effect1_dropShadow_201_220" result="shape"/>
</filter>
<filter id="filter1_d_201_220" x="0.5" y="2" width="27" height="28" filterUnits="userSpaceOnUse" color-interpolation-filters="sRGB">
<feFlood flood-opacity="0" result="BackgroundImageFix"/>
<feColorMatrix in="SourceAlpha" type="matrix" values="0 0 0 0 0 0 0 0 0 0 0 0 0 0 0 0 0 0 127 0" result="hardAlpha"/>
<feOffset dy="4"/>
<feGaussianBlur stdDeviation="2"/>
<feComposite in2="hardAlpha" operator="out"/>
<feColorMatrix type="matrix" values="0 0 0 0 0 0 0 0 0 0 0 0 0 0 0 0 0 0 0.25 0"/>
<feBlend mode="normal" in2="BackgroundImageFix" result="effect1_dropShadow_201_220"/>
<feBlend mode="normal" in="SourceGraphic" in2="effect1_dropShadow_201_220" result="shape"/>
</filter>
</defs>
</svg>
