<svg width="148" height="40" viewBox="0 0 148 40" fill="none" xmlns="http://www.w3.org/2000/svg">
<g clip-path="url(#clip0_201_253)">
<path d="M11.629 20.1624H13.1542C18.3712 20.1624 21.6402 21.879 21.6402 27.7433C21.6402 32.326 19.8517 35.6036 14.3774 35.6036C13.458 35.6347 12.5379 35.5692 11.6321 35.4081L11.629 20.1624ZM11.629 5.6138C12.6566 5.46771 13.6935 5.39928 14.7312 5.40908C18.4648 5.40908 20.5695 6.92607 20.5695 10.9826C20.5695 16.0516 17.7012 17.4744 13.1552 17.4744H11.6301L11.629 5.6138ZM4.04596 5.75915C4.35714 7.15172 4.47587 8.58087 4.39878 10.0061V33.3946C4.39878 35.0089 4.20153 35.8943 3.3749 36.3437L1.74806 37.3048V38.482C3.63824 38.4411 5.73787 38.3428 7.88936 38.3428C10.3347 38.3428 12.8004 38.4451 15.0922 38.482C23.4297 38.7185 29.3036 33.7468 29.3036 27.3338C29.3036 21.2812 25.573 18.9054 19.0342 18.6495V18.5543C23.7327 16.9421 28.1261 15.1764 28.1261 9.8536C28.1261 3.94531 23.1236 2.72926 18.415 2.78454C14.4729 2.83776 3.44404 2.83776 0.0683594 2.77942V4.72428C0.0683594 4.72428 3.5508 4.31484 4.04596 5.75813V5.75915ZM38.122 24.5998C35.8567 24.972 33.6858 25.7871 31.7316 26.9991C30.932 27.6668 30.3012 28.516 29.8911 29.477C29.481 30.4379 29.3034 31.4831 29.3727 32.5266C29.3727 36.226 31.2629 38.9703 35.0666 38.9068C36.6062 38.9427 38.126 38.5517 39.4596 37.7765C40.7933 37.0013 41.8895 35.8717 42.6283 34.5114V38.179C44.4138 38.1217 45.8515 38.0203 47.2679 38.0203C48.7493 38.0203 50.1067 38.1227 51.7416 38.179V36.2239L51.2333 36.0857C49.5729 35.9383 48.9201 35.2402 48.8703 33.931C48.8245 31.7814 48.7005 29.6165 48.7005 27.4649C48.7005 25.3132 48.8245 23.1718 48.8703 21.0233C49.0065 15.4497 44.9191 13.4639 40.4158 13.4158C37.2296 13.5358 34.1815 14.756 31.7835 16.8715V20.4756L33.3086 20.839L34.1302 18.8092C34.5125 17.5348 36.4271 17.5072 37.3025 17.5072C41.1459 17.5072 42.6273 20.0027 42.6273 23.6621L38.122 24.5998ZM42.6283 32.0291C41.5694 33.3375 40.0431 34.1757 38.3772 34.364C33.3839 34.451 33.0554 28.3134 40.3192 26.4648L42.6283 25.867V32.0291ZM69.4965 20.9997L69.9032 14.6451C67.8933 13.7558 65.7087 13.3385 63.5148 13.425C57.5515 13.425 52.9963 15.6186 52.9963 21.5791C52.9963 24.8628 54.8357 27.0994 58.4076 27.9859L62.8092 29.0914C64.6994 29.5469 66.0324 30.1846 66.0324 32.4775C66.0324 35.0079 63.9348 36.4163 61.6389 36.4163C59.2413 36.4163 56.0233 35.8329 55.6023 33.6884L54.9994 30.0884H53.0014L52.9923 37.4461C55.5427 38.4099 58.2437 38.9066 60.9678 38.9129C66.2235 38.9129 71.6998 36.0908 71.6998 30.0331C71.6998 25.7339 69.3613 24.1248 65.2118 23.1943L61.0176 22.2588C59.0705 21.8309 58.2063 20.9966 58.2063 19.3302C58.2063 17.0783 59.9999 15.9523 62.9658 15.9523C64.5926 15.9523 66.9383 16.8858 67.1569 17.9708L67.6653 21.0007L69.4965 20.9997ZM114.515 25.9571L114.551 22.5945C114.551 16.4794 110.264 13.3994 104.586 13.3994C103.038 13.3994 92.7449 14.1671 93.1283 26.8282C93.3438 34.3005 97.2716 38.8955 104.732 38.8955C107.616 38.9278 110.451 38.144 112.914 36.6334L114.038 34.1398L113.416 33.3342C111.763 34.4038 109.869 35.0374 107.909 35.1768C102.588 35.1768 99.7749 31.4129 99.7749 26.342C99.7749 26.342 114.518 26.1188 114.518 25.955L114.515 25.9571ZM103.881 16.3259C107.668 16.3259 108.069 20.5156 108.069 23.5997C106.639 23.6468 100.906 23.6468 99.481 23.5997C99.481 18.6628 100.905 16.3259 103.881 16.3259ZM141.598 8.00803C141.597 8.5954 141.768 9.16993 142.092 9.6589C142.415 10.1479 142.875 10.5293 143.414 10.7549C143.952 10.9805 144.545 11.0402 145.118 10.9264C145.69 10.8125 146.216 10.5303 146.629 10.1154C147.042 9.70047 147.324 9.17155 147.438 8.59556C147.552 8.01956 147.494 7.42238 147.271 6.87961C147.048 6.33683 146.67 5.87286 146.185 5.5464C145.7 5.21995 145.13 5.0457 144.546 5.0457C143.765 5.0457 143.016 5.3576 142.464 5.91297C141.911 6.46834 141.599 7.22181 141.598 8.00803ZM142.141 8.00803C142.127 7.68106 142.18 7.35475 142.295 7.04871C142.41 6.74266 142.585 6.4632 142.81 6.2271C143.035 5.991 143.306 5.80314 143.605 5.67482C143.904 5.54649 144.225 5.48034 144.55 5.48034C144.875 5.48034 145.197 5.54649 145.496 5.67482C145.795 5.80314 146.065 5.991 146.29 6.2271C146.516 6.4632 146.691 6.74266 146.806 7.04871C146.921 7.35475 146.973 7.68106 146.96 8.00803C146.982 8.33987 146.935 8.6726 146.824 8.98565C146.712 9.2987 146.538 9.58541 146.312 9.82805C146.087 10.0707 145.814 10.2641 145.511 10.3963C145.208 10.5286 144.881 10.5968 144.55 10.5968C144.22 10.5968 143.893 10.5286 143.59 10.3963C143.287 10.2641 143.014 10.0707 142.788 9.82805C142.562 9.58541 142.388 9.2987 142.277 8.98565C142.166 8.6726 142.119 8.33987 142.141 8.00803ZM143.4 9.75738H143.947V8.2496H144.522L145.444 9.75636H146.022L145.043 8.20456C145.165 8.2076 145.286 8.18486 145.399 8.13781C145.512 8.09076 145.614 8.02044 145.698 7.93136C145.783 7.84229 145.848 7.73643 145.889 7.62059C145.93 7.50476 145.947 7.3815 145.938 7.25875C145.938 6.59033 145.532 6.26584 144.725 6.26584H143.392L143.4 9.75738ZM143.947 6.69269H144.649C145.026 6.69269 145.404 6.76639 145.404 7.24339C145.404 7.8074 144.992 7.83095 144.51 7.83095H143.941L143.947 6.69269ZM89.8197 20.9936L90.2264 14.639C88.2142 13.7517 86.028 13.3366 83.833 13.425C77.8533 13.425 73.2951 15.6186 73.2951 21.5791C73.2951 24.8628 75.1253 27.0994 78.7186 27.9859L83.1182 29.0863C85.0175 29.5418 86.3413 30.1795 86.3413 32.4724C86.3413 35.0027 84.2437 36.4112 81.9458 36.4112C79.5361 36.4112 76.3434 35.8278 75.9042 33.6833L75.3155 30.0833H73.3257L73.2921 37.441C75.8486 38.4012 78.5543 38.8965 81.2829 38.9037C86.5325 38.9037 92.0159 36.0816 92.0159 30.0239C92.0159 25.7247 89.654 24.1156 85.5198 23.1851L81.3317 22.2495C79.3775 21.8217 78.5081 20.9874 78.5081 19.321C78.5081 17.069 80.2946 15.9431 83.2615 15.9431C84.9117 15.9431 87.2635 16.8766 87.4669 17.9616L87.9753 20.9915L89.8197 20.9936ZM118.706 32.3557C118.706 37.05 120.606 38.9969 125.258 38.9969C125.816 39.0549 126.379 39.0017 126.917 38.8403C127.454 38.6789 127.954 38.4124 128.389 38.0562L130.881 34.9853L130.474 33.9617C129.767 34.4075 128.948 34.6427 128.113 34.6404C125.825 34.6404 124.941 33.9146 124.941 31.2696V18.9095L130.372 18.8952L130.446 15.591H124.941V12.7248C124.941 10.3234 124.815 5.82057 124.874 5.63223L124.162 5.10097C122.623 5.83081 118.75 7.73882 118.75 7.72858C118.75 7.70095 118.825 15.6329 118.825 15.6329L115.443 17.8982V19.0549L118.71 18.9075L118.706 32.3557ZM131.841 32.3557C131.841 37.05 133.716 38.9969 138.389 38.9969C138.944 39.0555 139.504 39.0026 140.039 38.8411C140.573 38.6796 141.07 38.4128 141.501 38.0562L144.004 34.9853L143.61 33.9617C142.903 34.4018 142.089 34.6367 141.258 34.6404C138.934 34.6404 138.074 33.9146 138.074 31.2696V18.9095L143.508 18.8952L143.592 15.591H138.074V12.7248C138.074 10.3234 137.939 5.82057 138 5.63223L137.273 5.10097C135.748 5.83081 131.871 7.73882 131.871 7.72858C131.871 7.70095 131.943 15.594 131.943 15.594H128.558V18.9126H131.842L131.841 32.3557Z" fill="#333333"/>
<path d="M53.8676 5.07634C53.8676 4.20422 53.4803 3.848 51.8951 3.21951C50.4381 2.64424 50.0415 2.44873 50.0415 1.85503C50.0415 1.28897 50.4655 1.11291 51.5535 1.11291C52.2223 1.12047 52.8878 1.20775 53.5362 1.37291L53.6928 0.695278C52.991 0.492567 52.2652 0.386511 51.5352 0.380005C50.0232 0.380005 49.2027 0.843702 49.2027 1.85605C49.2027 2.81211 49.7192 3.22974 51.3328 3.83265C52.7339 4.35264 53.0288 4.60343 53.0288 5.09476C53.0288 5.6424 52.4574 6.03239 51.462 6.03239C50.6816 6.01012 49.9097 5.86292 49.1752 5.59633L48.9912 6.25554C49.7815 6.58101 50.6264 6.75126 51.4803 6.75711C52.9363 6.75609 53.8676 6.06003 53.8676 5.07634ZM56.3384 6.65372V2.13448H55.525V6.65475L56.3384 6.65372ZM56.3384 1.38212V0.389218H55.525V1.38212H56.3384ZM62.1838 6.65372V3.71698C62.1838 2.71486 61.6856 2.04645 60.6719 2.04645C60.3613 2.04691 60.056 2.12728 59.785 2.27991C59.514 2.43255 59.2862 2.65239 59.1233 2.91856V2.12936H58.3211V6.65475H59.1345V4.2595C59.1125 3.89341 59.2359 3.53353 59.4775 3.25902C59.7191 2.98452 60.0591 2.81787 60.4228 2.79573C61.0867 2.79573 61.3724 3.14888 61.3724 3.81934V6.65475L62.1838 6.65372ZM67.291 6.56058L67.1528 5.93822C66.8448 6.01284 66.529 6.05029 66.2123 6.04979C65.9901 6.07213 65.7657 6.0445 65.5554 5.96891C65.3451 5.89332 65.1541 5.77165 64.9962 5.61269C64.8383 5.45373 64.7175 5.26145 64.6424 5.04973C64.5673 4.83802 64.5398 4.61216 64.562 4.38847C64.54 4.16486 64.5676 3.93912 64.6427 3.72753C64.7179 3.51595 64.8388 3.3238 64.9967 3.16496C65.1545 3.00611 65.3455 2.88454 65.5557 2.80901C65.7659 2.73347 65.9902 2.70586 66.2123 2.72817C66.5295 2.72888 66.8455 2.76946 67.1528 2.84896L67.291 2.2266C66.9187 2.10684 66.5299 2.04742 66.139 2.05054C65.8263 2.03299 65.5134 2.08097 65.2201 2.19144C64.9268 2.3019 64.6594 2.47245 64.4349 2.69229C64.2104 2.91213 64.0337 3.17648 63.9159 3.46862C63.7981 3.76076 63.7419 4.07433 63.7507 4.38949C63.7419 4.70466 63.7981 5.01823 63.9159 5.31037C64.0337 5.60251 64.2104 5.86686 64.4349 6.0867C64.6594 6.30654 64.9268 6.47709 65.2201 6.58755C65.5134 6.69802 65.8263 6.74599 66.139 6.72845C66.5292 6.73157 66.9176 6.67532 67.291 6.5616V6.56058ZM72.7308 4.64847V4.39768C72.7668 4.10593 72.7414 3.80979 72.656 3.52862C72.5706 3.24745 72.4273 2.98757 72.2354 2.76596C72.0435 2.54435 71.8073 2.366 71.5422 2.24254C71.2772 2.11909 70.9892 2.05331 70.6972 2.04952C70.4015 2.05244 70.1095 2.11646 69.8393 2.23761C69.5692 2.35876 69.3266 2.53445 69.1266 2.75382C68.9266 2.97318 68.7735 3.23154 68.6767 3.51289C68.58 3.79425 68.5416 4.09261 68.564 4.38949C68.5479 4.7097 68.6004 5.02964 68.718 5.32761C68.8355 5.62559 69.0153 5.89463 69.2452 6.11648C69.4752 6.33833 69.7498 6.5078 70.0505 6.61339C70.3512 6.71898 70.6709 6.75822 70.988 6.72845C71.4925 6.72845 71.9937 6.64689 72.4725 6.48688L72.3159 5.87271C71.8821 5.98689 71.4364 6.04908 70.988 6.05798C70.788 6.08415 70.5848 6.0674 70.3917 6.00882C70.1986 5.95024 70.02 5.85117 69.8677 5.71812C69.7154 5.58507 69.5927 5.42106 69.5079 5.23687C69.4231 5.05269 69.3779 4.8525 69.3754 4.64949L72.7308 4.64847ZM71.9285 4.0343H69.3754C69.3736 3.85962 69.4067 3.68635 69.4726 3.52477C69.5386 3.36319 69.6361 3.21657 69.7593 3.09362C69.8826 2.97067 70.0291 2.87389 70.1902 2.809C70.3513 2.74412 70.5237 2.71245 70.6972 2.71589C71.4496 2.71896 71.8645 3.22974 71.9285 4.03737V4.0343ZM78.9361 6.65475V0.565279H78.1227L76.3942 0.918425L76.5142 1.55921L78.1247 1.27055V6.65475H78.9361ZM85.3896 3.15502C85.3896 1.41488 84.505 0.47213 83.1028 0.47213C82.8339 0.462284 82.5656 0.506673 82.3139 0.602687C82.0623 0.698702 81.8322 0.844404 81.6372 1.03123C81.4423 1.21805 81.2864 1.44223 81.1787 1.69058C81.0711 1.93893 81.0138 2.20644 81.0103 2.47739C81.0052 2.73384 81.0527 2.9886 81.1497 3.22579C81.2467 3.46298 81.3912 3.67753 81.5741 3.85605C81.7571 4.03457 81.9746 4.17325 82.2131 4.26344C82.4516 4.35363 82.706 4.3934 82.9605 4.38028C83.2643 4.3993 83.5683 4.34526 83.8473 4.22262C84.1263 4.09999 84.3723 3.91228 84.565 3.67501C84.4124 5.12342 83.7027 6.05082 82.2 6.05082C81.9218 6.04891 81.6443 6.02392 81.3703 5.97609L81.2686 6.64451C81.5903 6.71744 81.919 6.75485 82.2488 6.75609C84.2284 6.75609 85.3896 5.36397 85.3896 3.15502ZM84.5324 2.46817C84.521 2.64312 84.4747 2.81397 84.3964 2.97056C84.3181 3.12716 84.2093 3.26631 84.0765 3.37975C83.9438 3.49319 83.7897 3.5786 83.6235 3.6309C83.4572 3.68321 83.2823 3.70134 83.1089 3.68423C82.9428 3.70366 82.7744 3.68654 82.6155 3.63403C82.4566 3.58153 82.3108 3.4949 82.1884 3.38013C82.066 3.26537 81.9698 3.12521 81.9065 2.96934C81.8432 2.81347 81.8143 2.64562 81.8217 2.47739C81.8167 2.30272 81.8477 2.1289 81.9128 1.9669C81.9778 1.8049 82.0755 1.65825 82.1998 1.53619C82.324 1.41413 82.472 1.31931 82.6344 1.25774C82.7968 1.19616 82.9702 1.16915 83.1435 1.17842C83.3208 1.16257 83.4993 1.18422 83.6678 1.24197C83.8362 1.29971 83.9908 1.39229 84.1216 1.51375C84.2524 1.6352 84.3565 1.78286 84.4273 1.94723C84.498 2.11159 84.5338 2.28904 84.5324 2.46817ZM91.5481 3.6095C91.5481 1.86936 90.7825 0.47213 89.2248 0.47213C87.6671 0.47213 86.8862 1.87346 86.8862 3.6095C86.8862 5.34555 87.6702 6.75609 89.2248 6.75609C90.7795 6.75609 91.5481 5.34555 91.5481 3.61462V3.6095ZM90.7459 3.6095C90.7459 4.9402 90.3219 6.03239 89.2208 6.03239C88.1196 6.03239 87.6946 4.93713 87.6946 3.61462C87.6946 2.29211 88.1277 1.20094 89.2248 1.20094C90.3219 1.20094 90.7459 2.28392 90.7459 3.61462V3.6095ZM97.4485 6.65475V5.93105H94.0433C94.0707 5.29027 94.569 4.95658 95.9243 4.1121C96.9106 3.49793 97.3722 2.96156 97.3722 2.1355C97.3722 1.15181 96.6533 0.474177 95.1414 0.474177C94.4865 0.477945 93.8357 0.577949 93.2095 0.771025L93.3478 1.43944C93.889 1.29044 94.4463 1.2093 95.0072 1.19787C96.0677 1.19787 96.5557 1.50496 96.5557 2.17235C96.5557 2.7292 96.2609 3.06289 95.2655 3.66682C93.6701 4.63209 93.1353 5.05894 93.1353 6.25656V6.65577L97.4485 6.65475Z" fill="#333333"/>
</g>
<defs>
<clipPath id="clip0_201_253">
<rect width="147.432" height="38.6373" fill="white" transform="translate(0.0683594 0.380005)"/>
</clipPath>
</defs>
</svg>
