<svg width="203" height="35" viewBox="0 0 203 35" fill="none" xmlns="http://www.w3.org/2000/svg">
<g clip-path="url(#clip0_201_229)">
<path d="M80.1692 4.18975C80.1692 2.51222 81.5361 1.15538 83.2188 1.15538C84.9072 1.15538 86.2794 2.51222 86.2794 4.18975C86.2794 5.86512 84.9072 7.22339 83.2188 7.22339C81.5361 7.22339 80.1692 5.86512 80.1692 4.18975Z" fill="#14120F"/>
<path d="M128.377 24.3725C128.377 22.6942 129.744 21.336 131.426 21.336C133.114 21.336 134.486 22.6942 134.486 24.3725C134.486 26.0464 133.114 27.4061 131.426 27.4061C129.744 27.4061 128.377 26.0464 128.377 24.3725Z" fill="#499FDD"/>
<path d="M30.0241 23.0609C27.3927 23.0609 25.564 20.9908 25.564 18.0327C25.564 15.0752 27.3927 13.0065 30.0241 13.0065C32.6706 13.0065 34.5194 15.0752 34.5194 18.0327C34.5194 21.0375 32.7091 23.0609 30.0241 23.0609ZM30.0241 8.58731C24.457 8.58731 20.4167 12.5607 20.4167 18.0327C20.4167 23.5046 24.457 27.4773 30.0241 27.4773C35.6121 27.4773 39.6691 23.5046 39.6691 18.0327C39.6691 12.5607 35.6121 8.58731 30.0241 8.58731Z" fill="#14120F"/>
<path d="M74.2517 18.5051C74.0353 18.1017 73.7871 17.7602 73.5228 17.4891L73.3545 17.3122L73.5317 17.144C73.7872 16.8772 74.0484 16.5608 74.3004 16.1941L79.2132 8.95983H73.2492L69.5579 14.6187C69.349 14.9221 68.9271 15.0753 68.2956 15.0753H67.4543V4.37664C67.4543 2.23677 66.1085 1.94555 64.6546 1.94555H62.1655L62.1697 27.1991H67.4543V19.624H67.9494C68.5518 19.624 68.9621 19.693 69.1502 20.0173L72.0653 25.4676C72.8796 26.9467 73.6912 27.1991 75.2179 27.1991H79.2677L76.2515 22.2571L74.2517 18.5051Z" fill="#14120F"/>
<path d="M99.9065 8.54709C97.2185 8.54709 95.5034 9.72991 94.5423 10.7301L94.2214 11.0515L94.1081 10.6144C93.8258 9.54296 92.8741 8.95334 91.4419 8.95334H89.0735L89.0883 27.1926H94.337V18.7863C94.337 17.9644 94.4449 17.2511 94.6642 16.6004C95.2485 14.6309 96.8782 13.4064 98.9151 13.4064C100.554 13.4064 101.194 14.2628 101.194 16.476V24.42C101.194 26.3089 102.076 27.1926 103.984 27.1926H106.482L106.473 15.5923C106.473 10.9832 104.204 8.54709 99.9081 8.54709" fill="#14120F"/>
<path d="M83.2883 8.96132H80.8005L80.8175 23.0639H80.8159V27.197H83.4713C83.5047 27.197 83.5315 27.2006 83.5649 27.2006L84.8018 27.197H86.033V27.1898H86.0415L86.0522 11.7304C86.0522 9.86517 85.1519 8.96134 83.2901 8.96134" fill="#14120F"/>
<path d="M50.6403 23.0609C48.0091 23.0609 46.1768 20.9908 46.1768 18.0327C46.1768 15.0752 48.0091 13.0065 50.6403 13.0065C53.2813 13.0065 55.1352 15.0752 55.1352 18.0327C55.1352 21.0375 53.3256 23.0609 50.6403 23.0609ZM50.6403 8.58731C45.0677 8.58731 41.0266 12.5607 41.0266 18.0327C41.0266 23.5046 45.0677 27.4773 50.6403 27.4773C56.2225 27.4773 60.2862 23.5046 60.2862 18.0327C60.2862 12.5607 56.2225 8.58731 50.6403 8.58731Z" fill="#14120F"/>
<path d="M163.146 23.0609C160.516 23.0609 158.682 20.9908 158.682 18.0327C158.682 15.0752 160.516 13.0065 163.146 13.0065C165.787 13.0065 167.642 15.0752 167.642 18.0327C167.642 21.0375 165.832 23.0609 163.146 23.0609ZM163.146 8.5873C157.575 8.5873 153.533 12.5607 153.533 18.0327C153.533 23.5046 157.575 27.4773 163.146 27.4773C168.729 27.4773 172.792 23.5046 172.792 18.0327C172.792 12.5607 168.729 8.5873 163.146 8.5873Z" fill="#499FDD"/>
<path d="M117.541 22.2585C114.671 22.2585 113.65 19.7786 113.65 17.4546C113.65 16.4307 113.911 13.0936 117.265 13.0936C118.932 13.0936 121.153 13.5667 121.153 17.6265C121.153 21.4554 119.187 22.2585 117.541 22.2585ZM123.878 8.91236C122.882 8.91236 122.116 9.30567 121.732 10.024L121.586 10.303L121.343 10.0937C120.496 9.36751 118.977 8.5061 116.51 8.5061C111.602 8.5061 108.298 12.1574 108.298 17.5912C108.298 23.0186 111.717 26.8115 116.609 26.8115C118.28 26.8115 119.6 26.4254 120.647 25.6402L121.052 25.3389V25.8458C121.052 28.282 119.462 29.6259 116.579 29.6259C115.177 29.6259 113.902 29.2879 113.049 28.9816C111.936 28.6487 111.283 28.9241 110.831 30.0307L110.415 31.0517L109.825 32.543L110.191 32.7357C112.036 33.7057 114.438 34.2845 116.609 34.2845C121.079 34.2845 126.298 32.0181 126.298 25.6402L126.317 8.91236H123.879" fill="#14120F"/>
<path d="M10.4767 22.8518L6.20415 22.8476V17.7877C6.20415 16.7062 6.62739 16.1439 7.56297 16.0145H10.4767C12.5564 16.0145 13.9001 17.3138 13.9016 19.4156C13.9001 21.5727 12.5898 22.8505 10.4767 22.8519V22.8518ZM6.20415 9.20216V7.87049C6.20415 6.70493 6.70204 6.15055 7.79466 6.07935H9.98088C11.8559 6.07935 12.9789 7.191 12.9789 9.05045C12.9789 10.4684 12.2102 12.1229 10.0498 12.1229H6.20415V9.20216ZM15.9334 14.252L15.161 13.822L15.8353 13.2511C16.6193 12.5831 17.9339 11.0818 17.9339 8.48745C17.9339 4.51831 14.8257 1.95635 10.015 1.95635H4.52507V1.95492H3.90001C2.47376 2.0067 1.33261 3.15572 1.31665 4.57728V27.1071H3.83611C3.8425 27.1085 3.84464 27.1071 3.84676 27.1085L10.1235 27.1071C15.4712 27.1071 18.9229 24.2237 18.9229 19.7577C18.9229 17.3533 17.8073 15.2975 15.9323 14.252" fill="#14120F"/>
<path d="M196.237 8.60602C194.059 8.60602 191.954 9.61626 190.603 11.3103L190.222 11.7878L189.924 11.2535C188.952 9.49762 187.279 8.60602 184.952 8.60602C182.512 8.60602 180.876 9.95421 180.116 10.7559L179.619 11.2895L179.427 10.5877C179.15 9.57744 178.242 9.02089 176.866 9.02089H174.66L174.639 27.1897H179.651V19.1695C179.651 18.467 179.739 17.7717 179.917 17.0447C180.396 15.1069 181.711 13.0224 183.921 13.2309C185.284 13.3603 185.95 14.4037 185.95 16.4191V27.1897H190.998V19.1695C190.998 18.2915 191.081 17.6343 191.28 16.975C191.687 15.1249 193.059 13.228 195.192 13.228C196.735 13.228 197.306 14.0938 197.306 16.4191V24.5336C197.306 26.3693 198.133 27.1897 199.985 27.1897H202.344L202.348 15.5908C202.348 10.9573 200.289 8.60602 196.236 8.60602" fill="#499FDD"/>
<path d="M150.631 20.8815C150.616 20.8994 148.459 23.1523 145.619 23.1523C143.032 23.1523 140.418 21.5797 140.418 18.0694C140.418 15.0386 142.445 12.9203 145.345 12.9203C146.288 12.9203 147.359 13.2546 147.527 13.8169L147.551 13.9118C147.938 15.1867 149.107 15.255 149.337 15.255L152.083 15.258V12.8801C152.083 9.74364 148.056 8.6061 145.345 8.6061C139.55 8.6061 135.344 12.6033 135.344 18.1075C135.344 23.6097 139.504 27.6011 145.239 27.6011C150.215 27.6011 152.922 24.3611 152.947 24.3287L153.091 24.1533L150.917 20.5796L150.631 20.8816" fill="#499FDD"/>
</g>
<defs>
<clipPath id="clip0_201_229">
<rect width="201.883" height="33.9299" fill="white" transform="translate(0.891113 0.733765)"/>
</clipPath>
</defs>
</svg>
